/* XPM */
static char *_f9c00a17af14ecfee1e94b744cef33farzGRhlxwQ58gxpu[] = {
/* columns rows colors chars-per-pixel */
"54 54 219 2 ",
"   c #2A0102",
".  c #260001",
"X  c #310305",
"o  c #49080C",
"O  c #4F0100",
"+  c #560000",
"@  c #5B0001",
"#  c #560C0D",
"$  c #5C0D0D",
"%  c #5C0808",
"&  c #570F11",
"*  c #5B0C11",
"=  c #541315",
"-  c #5C1113",
";  c #561E1F",
":  c #630202",
">  c #620809",
",  c #600C11",
"<  c #9D383E",
"1  c #B82627",
"2  c #B92826",
"3  c #BB2729",
"4  c #BB2A2C",
"5  c #B6232B",
"6  c #BF2B31",
"7  c #B32C32",
"8  c #A23231",
"9  c #BF3238",
"0  c #CF0E0F",
"q  c #DE0806",
"w  c #DF0709",
"e  c #D00E0F",
"r  c #DF090B",
"t  c #D10E13",
"y  c #DF0E16",
"u  c #D30E19",
"i  c #DB0F18",
"p  c #CF1118",
"a  c #C9141B",
"s  c #D41117",
"d  c #D4131A",
"f  c #DA1419",
"g  c #DC1B1E",
"h  c #DD1216",
"j  c #E2070E",
"k  c #E20B0D",
"l  c #EA0C0D",
"z  c #E00907",
"x  c #E30611",
"c  c #E40C13",
"v  c #EA0D14",
"b  c #E40D1A",
"n  c #E41215",
"m  c #EA1315",
"M  c #E4131B",
"N  c #EB141B",
"B  c #E6181D",
"V  c #EE191D",
"C  c #EC1817",
"Z  c #F21116",
"A  c #F01318",
"S  c #DC1721",
"D  c #D61B24",
"F  c #DA1B24",
"G  c #E51722",
"H  c #EB1523",
"J  c #E51C23",
"K  c #EB1D23",
"L  c #E31F29",
"P  c #EC1C2A",
"I  c #F11D22",
"U  c #EC1F30",
"Y  c #C42A2A",
"T  c #DE252C",
"R  c #DF2025",
"E  c #C32D32",
"W  c #CC2D33",
"Q  c #C52F3A",
"!  c #DE2B33",
"~  c #C43234",
"^  c #C5333B",
"/  c #C9313D",
"(  c #C63A3E",
")  c #C9383F",
"_  c #E52026",
"`  c #EA2126",
"'  c #E5222C",
"]  c #EB232B",
"[  c #E82A2F",
"{  c #F12026",
"}  c #F1242B",
"|  c #F3292F",
" . c #E32131",
".. c #ED2532",
"X. c #E12C34",
"o. c #EE2A33",
"O. c #ED2B3A",
"+. c #F22C34",
"@. c #F22D3B",
"#. c #F12736",
"$. c #E6343C",
"%. c #EE313C",
"&. c #E7353B",
"*. c #F93237",
"=. c #F3323C",
"-. c #F9343C",
";. c #F4383F",
":. c #F73037",
">. c #CA3C42",
",. c #C83940",
"<. c #F42F42",
"1. c #EF3442",
"2. c #EA3C45",
"3. c #E73640",
"4. c #F33543",
"5. c #FB3642",
"6. c #F43A45",
"7. c #FD3B45",
"8. c #F63D49",
"9. c #F93E4A",
"0. c #B35A5E",
"q. c #876B6A",
"w. c #946566",
"e. c #996766",
"r. c #956A66",
"t. c #966D6D",
"y. c #996D6E",
"u. c #9A6869",
"i. c #87716F",
"p. c #96716F",
"a. c #8F6F72",
"s. c #9B6F72",
"d. c #966F70",
"f. c #857273",
"g. c #8C7678",
"h. c #967272",
"j. c #9A7475",
"k. c #977876",
"l. c #9D7579",
"z. c #99797C",
"x. c #9A7877",
"c. c #BA6467",
"v. c #CA4246",
"b. c #CD444A",
"n. c #CE484E",
"m. c #D1444D",
"M. c #D34A4E",
"N. c #D14C51",
"B. c #CF5C5F",
"V. c #D15256",
"C. c #D4565A",
"Z. c #D25A5E",
"A. c #DC5B5F",
"S. c #EB454B",
"D. c #FC4047",
"F. c #F5414C",
"G. c #FA434D",
"H. c #ED4954",
"J. c #F74551",
"K. c #FB4552",
"L. c #FA4A54",
"P. c #FB4D59",
"I. c #F64A57",
"U. c #ED535B",
"Y. c #E0575F",
"T. c #F1555D",
"R. c #FA535C",
"E. c #F95057",
"W. c #CB5D63",
"Q. c #D25B63",
"!. c #DF5C61",
"~. c #EF5D65",
"^. c #F45661",
"/. c #F25D64",
"(. c #F45E69",
"). c #FB5360",
"_. c #D36266",
"`. c #D4646A",
"'. c #D9656A",
"]. c #D2696E",
"[. c #EE656D",
"{. c #F36066",
"}. c #B6ADAB",
"|. c #BBB1B2",
" X c #FEF5F4",
".X c #FDF9F6",
"XX c #FFF6FA",
"oX c #F6FEFE",
"OX c #F7FCFC",
"+X c #FFFBFB",
"@X c #FFFBFA",
"#X c #FEF9FA",
"$X c #FAFDFB",
"%X c #FFFFFB",
"&X c #FDFDFA",
"*X c #FFF9FD",
"=X c #FFF9FD",
"-X c #FFFAFD",
";X c #FFF9FE",
":X c #FDFBFF",
">X c #FFFBFF",
",X c #FFFAFE",
"<X c #FDFAFC",
"1X c #F8FFFF",
"2X c #FBFFFF",
"3X c #FAFDFE",
"4X c #FFFCFD",
"5X c #FCFFFD",
"6X c #FEFFFD",
"7X c #FFFFFD",
"8X c #FFFEFD",
"9X c #FFFDFF",
"0X c #FCFFFF",
"qX c #FFFEFF",
"wX c #FEFFFF",
"eX c white",
"rX c #FDFCFE",
"tX c #FEFDFD",
"yX c #F5FAF6",
/* pixels */
"wX3XwXwX3X3XwXwXwX3X3X3XwXwXwX%XwXwXwXwXwXwXwXwXwXwXwXwXwXwXwXwX%X%XwXwXOXOX3XwX<XwX%X%X%X%X%XwXwX<XwXwX3X3X",
"wX<XwXwX3XOXwXwXwXwX3X3XwXwXwX%XwXwXwXwXwXwXwXwXwXwXwXwXwXwXwXwXwXwXwXwX3X3XwXwXwXwX.X%XwXwXwXwXwXwXwXwXwXwX",
"wXwXwX<XwXwX%X%X%XwX3X3XwXwXwXwXwXwXwXwXwXwXwXwXwXwXwXwXwXwXwXwXwXwXwXwX3X3XwXwXwX<XwXwXwXwXwXwX<XwXwX<XwXwX",
"wXwX<XwX3XwX.X X.X@XwX3X<X<X%X%X@X<X<X<X<X<X<X<X<X<X<X<X<X<X<X<X<X<X<X<X<X<X<X<X;XXX<X@XXX<X<XwXwX<XwXwXwXwX",
"%XwX3XwX3X%X X.X.X@X@XwX<X@X%X%X%X@X@X@X@X@X@X%X@X@X@X@X@X@X@X@X@X@X<X<X<XwX<X<X<X@X@X@X<X<XwXwX@XwX@XwXwX$X",
"%X$XwX3XyX}.i.h.y.s.d.h.s.d.h.p.h.h.h.h.h.h.h.h.k.k.k.k.k.k.k.x.k.l.l.l.z.z.z.l.j.l.k.k.l.h.g.f.|.wX<XwXwXwX",
"%X$XwXwX@Xi.X = * , * * * * $ $ $ $ $ $ $ $ $ $ # # # # # & & & * $ * * & = - - - - - - * & ;   g.@XwX%X%XwX",
"wXwXwX@XwXh.= 0.W.Q.Q.Q.Q.Q.Q.Z.Z.Z.Z.Z.Z.Z.Z.B.Q.Q.Q._._._._._._._._.`.`.`.'.'.`._._.`.`.].c.= z.<X XwX%X%X",
"wXwXwX<X@Xd.# W.Y.U.U.U.U.U.U.U.T.U.U.U.U.U.U.U.T.T.T.U.U.U.^././.~.~.(.~.~.(.(.(.{.(.(.(.[.'., k.<X@XwXwXwX",
"wXwXwX<X@Xd.% C.U.I.L.L.L.L.L.L.L.L.K.L.L.J.L.L.L.L.L.L.L.P.P.P.R.R.R.R.R.R.R.R.R.R.R.R.)./.!.> k.<X@XwXwXwX",
"wXwXwXwX@Xt.% V.H.G.G.G.G.G.G.G.G.G.G.G.G.G.G.G.K.G.G.J.J.L.L.L.L.P.P.P.P.P.P.P.P.E.P.P.P.^.A.> k.wX@XwXwXwX",
"wXwXwXwX@Xt.@ N.S.D.D.7.7.D.D.D.D.7.9.D.D.9.9.D.G.G.G.G.G.G.G.G.J.L.L.L.L.L.L.L.P.P.L.P.P.^.A.> k.wX@XwXwXwX",
"<XwXwX<X@Xy.@ M.F.7.7.7.7.7.7.7.9.9.7.9.9.9.9.9.9.G.G.9.9.9.9.G.F.F.J.J.J.J.J.K.L.L.L.L.L.T.C.% k.%X@XwXwXwX",
"<XwXwX<X@Xy.@ M.2.7.7.5.7.7.7.6.9.6.6.7.6.6.6.8.9.9.G.9.9.8.9.G.8.F.F.F.F.G.G.G.J.J.J.J.K.I.C.% k.%X@XwXwXwX",
"wXwX3XOX%Xh.@ n.2.5.5.5.5.5.6.6.6.6.6.6.6.6.6.6.8.8.8.8.8.8.8.G.8.8.8.8.8.8.9.9.F.F.G.K.K.H.C.% k.@X@XwXwXwX",
"wXwX3XOX%Xh.@ n.2.5.-.5.5.5.6.4.6.;.6.6.6.6.6.6.6.6.6.6.8.8.8.8.6.6.6.6.6.6.6.6.6.6.8.9.8.H.C.% k.@X@XwXwXwX",
"wXwXwXwX%Xp.@ b.&.-.-.-.=.=.5.5.4.=.=.=.;.;.;.6.6.6.6.6.6.6.6.6.6.4.6.6.4.4.4.4.6.8.6.8.8.S.V.% k.%X@XwXwXwX",
"wXwXwX<X@Xt.@ b.&.-.*.*.=.=.=.=.=.=.=.=.=.=.;.;.;.;.;.4.4.4.4.6.6.6.4.1.4.;.1.1.4.6.6.6.6.S.N.% k.%X@XwXwXwX",
"wXwXwX<X@Xt.@ v.&.*.:.+.@.@.@.@.@.@.@.@.@.:.=.=.=.:.:.=.=.;.=.=.4.4.1.1.=.=.=.4.4.6.4.;.;.2.N.@ j.%X@XwXwXwX",
"wXwXwX<X@Xt.@ v.&.+.+.+.#.#.+.+.#.o.#.@.@.@.@.:.@.@.@.%.:.:.=.=.@.@.1.%.:.:.%.4.<.4.=.=.=.2.N.@ j.%X@XwXwXwX",
"wXwXwX<X@Xt.@ >.&.+.| | #.#.#.#.| ] | #.#.| o.+.#.o.o.o.@.@.@.@.@.@.O.O.@.@.@.@.@.<.@.=.=.2.m.@ j.@X@XwXwXwX",
"wXwXwX<X@Xt.+ >.X.| } } | | | | | ] ] ] ] ] ] | o.o.o.o.o.o.o.+.+.O.O.O.o.o.o.@.@.@.@.@.@.3.m.@ j.@X@XwXwXwX",
"wXwXwX<X@Xt.@ ( X.{ { { { { { { } ] ] ] ] ] ] ] ] ] [ [ ....o.o.....o.o.o.o.o.o.#.@...+.+.$.b.@ j.@X@XwXwXwX",
"wXwXwX<X@Xt.@ ( ' ` { { { { { K } ] ` ` ` ` ] ] ] ] ] ] [ [ [ ..............o...#.#...o.o.$.b.@ j.@X@XwXwXwX",
"wXwXwX@X@Xr.@ ^ T K I I K K K K K ] ] K ` ` ` ` _ ] [ [ ' L ' ' ' ' ' [ [ ] [ ........o.o.X.>.@ h.@X@XwXwXwX",
"wXwXwX@X@Xr.@ ^ T K V V K K K K J K K J J J J _ ` ` L L L ' o.=.P ' ' ' [ [ [ ........o...X.>.@ h.@X@XwXwXwX",
"wXwXwX@X@Xw.@ ~ ' K V V K K I K J K K K K J J ` J J J J L ' ..o.' ' ' [ ] ` ] ] ....' ] [ ! >.@ h.@X@XwXwXwX",
"wXwXwX@X@Xr.@ ~ ' V V V V V V V K ` ] ` K ` ` ] ` ] ] ] ' [ ' ] ] ] ..[ ] ` K ] U ..' ' ' ! ,.@ h.@X@XwXwXwX",
"3XwXwX@X@Xr.@ ~ _ V V V V V V m B K K K K K K ` ` ` K J K ] ] ] ] ] [ [ ] K K P P P ] ] ] ! ,.@ h.@X@XwXwXwX",
"3XwXwX@X@Xr.@ ~ R V V V V V m m n M M M M B B B M M M M M M M M G G L _ K K K P P P P ] ] X.,.@ h.@X@XwXwXwX",
"3XwXwX@X@Xr.@ ~ F V V V m m m C n n n n n n n n n M M M M M M h M f S G K K K K P P P ] P ' ,.@ h.@X@XwXwXwX",
"3XwXwX@X@Xr.@ ~ F V m m C m m C m n n n C C n n n n M M M M M M B M M G G B K K P P K K K T ) @ h.@X@XwXwXwX",
"wXwXwX<X@Xe.@ ~ g C m m m m m m n n n m m n n n n n n n n n n n M M M B V B B G G P K K K T ( @ h.@X@XwXwXwX",
"wXwXwX@X@Xe.@ ~ g m m m m C m m m m m m m n n n n n n n n n n n n M M M N B B G G P K K K T ,.@ h.@X@XwXwXwX",
"wXwXwX@X@Xe.@ E g A Z Z m m m m m m m m v v N N n n n v b v n n b n b M N N G G H P H K H  .,.@ s.@X@XwXwXwX",
"wXwXwXXX@Xe.@ E g N Z Z m N m m v c v c v v v v v v v v v v v v b M M M N N B G H H H H H  ./ @ s.@X@XwXwXwX",
"%XwXwX.X@Xr.@ E g m v v m n n n c c c k c c c c v v v c c c v n n n M n n n n M H H N V H L / @ s.@X@XwXwXwX",
"%XwXwX@X%Xr.+ 4 g m v v v n c c c k k k k k k k c c c c k k k k n n n n n n n M M H N V V F / @ s.@X@XwXwXwX",
"wXwXwX$X%Xr.+ 4 f v v v v v v c k k k k k k k k r k r r r r r r c c c c v n M M M M n M V D / @ s.@X@XwXwXwX",
"wXwX3X$X%Xr.+ 4 f v v v v c c k c c c c k k j j x k c c r r r r c c c v v v M h b M n M M D Q @ s.@X@XwXwXwX",
"wXwXwXwX%Xr.+ 2 d v l l k k k k c c c c c c x j x j x x x x x x x c b b c c b M H b M M b D / @ d.@X@XwXwXwX",
"wXwXwX@X@Xr.+ 4 d c l l k k k k k c c c c j j j j j j j x x x x x x c c c c b M b H H B M D E @ d.@X.XwXwXwX",
"<XwXwX@X@Xw.+ 1 d c l l k k k k k k z z z z z z z z k k k k k k k c c c c c n n y B c c n D ~ @ d.@X@XwXwX3X",
"@XwXwXXX@Xu.@ 6 d c c k k k l k z w w q w q q q z w z w z k k k k k c c k c n n M n c C m s E @ d.@X@XwXwXwX",
"wXwX<XXX@Xu.@ 5 d y c c c x x x j w w w w w w w z w z z k k k k c c c c v v c n N n v A v f W : s.@X@XwXwX3X",
"$X$XwXwX@Xw.+ 7 a d p p p d u u t t t 0 0 0 e e 0 e e t t t s s s u u u d d d d S d f h i D ^ + d.@X@XwXwX3X",
"$X$X%X%X@Xq.+ 8 2 Y 2 2 2 2 3 3 2 2 2 2 2 2 2 2 1 1 1 1 1 2 2 2 1 1 4 4 4 4 4 4 6 E W Y W 9 < o a.@X@XwXwX3X",
"$X%XwX%X%Xq.  O @ @ @ + + + @ @ + + + + + + + + + + + + + @ @ @ + + + @ @ @ @ @ @ @ : @ : + o . f.@X@XwXwX3X",
"%X%X.XwX X}.q.h.t.y.t.t.t.t.t.t.t.t.t.t.t.t.t.t.y.y.y.y.y.y.y.y.t.t.t.t.y.t.t.t.y.y.y.y.y.t.a.f.|.@XwXwXwX<X",
"wXwXwXwXwX@X@XwX%X@X@X@X@X@X@X@X@X@X@X@X@X@X@X@X@X@X@X@X@X@X@X@X@X@X<X@X@X@X@X@X@X@X@X@X@X@X@X<X@XwXwXwXwX<X",
"wXwXwXwX.XwXwX X@X@X@X@X@X@X@X@X@X@X@X@X@X@X@X@X@X@X@X@X@X@X@X@X@X@X@X@X@X@X@X@X@X@X@X@X@X@X@X@XwX<XwXwXwXwX",
"wXwX%X%XwX%X%XwXwXwXwXwX%X%X%X%XwXwXwXwXwXwXwXwXwXwXwXwXwXwXwXwXwXwXwXwXwXwXwXwXwXwXwXwXwXwXwXwXwX<XwXwX<XwX",
"OXwXwXwXwXwXwXwXwXwXwXwXwXwXwXwXwXwXwXwXwXwXwXwXwXwXwXwXwXwXwXwXwXwXwXwXwXwXwXwXwXwXwXwXwXwXwXwXwXwXwXwXwXwX",
"wXwXwXwXwXwXwXwXwXwX%X%XwXwXwXwXwX3X3X3X3X3X3X3X3X3X3X3X3X3X3X3X3X3X3X3X3X3X3X3X3X3X3X3X3X3X3X3X<XwX<XwXwXwX"
};
